<svg width="19" height="19" viewBox="0 0 19 19" fill="none" xmlns="http://www.w3.org/2000/svg">
<path d="M18.1681 15.1269L15.2958 12.2546C14.7246 11.6834 13.7796 11.7047 13.187 12.292L11.7401 13.7388C11.6494 13.6908 11.5533 13.6374 11.4572 13.5787C10.5442 13.0715 9.29492 12.3774 7.98155 11.0641C6.66285 9.74535 5.96879 8.49605 5.4616 7.57776C5.40821 7.48167 5.35482 7.38556 5.30677 7.30014L6.27845 6.33381L6.75361 5.85865C7.34622 5.26603 7.36224 4.32105 6.79098 3.74979L3.91866 0.87747C3.3474 0.306209 2.40242 0.322226 1.80981 0.914842C1.80981 0.914842 1.25456 1.37399 1.00363 1.72635C0.752707 2.07872 0.523135 2.49515 0.357629 2.9276C0.202802 3.33869 0.106702 3.72843 0.058652 4.11817C-0.320409 7.26277 1.11575 10.1351 5.01313 14.0271C10.4001 19.4141 14.7406 19.003 14.9274 18.987C15.3332 18.9389 15.7283 18.8428 16.1233 18.688C16.5505 18.5225 17.1164 18.1861 17.3139 18.042C17.5115 17.8978 18.1308 17.2411 18.1308 17.2411C18.718 16.6432 18.7394 15.6982 18.1681 15.1269Z" fill="#00C99D"/>
</svg>
